<svg width="64" height="58" viewBox="0 0 64 58" fill="none" xmlns="http://www.w3.org/2000/svg">
<path d="M32.1005 48.9722C32.6566 48.9632 33.0193 49.5605 32.7537 50.0557C32.3981 50.7309 32.3179 51.7347 32.5737 52.1583C33.0657 52.9738 32.3598 53.6762 31.6967 52.8851C30.8518 51.8858 30.8937 50.4811 31.4784 49.3687C31.5987 49.1279 31.8393 48.9767 32.1005 48.9722ZM32.7261 28.5207C33.5621 29.9726 34.4899 30.8406 35.7153 31.3457C36.7822 31.7883 36.1182 32.8735 35.0603 32.4019C34.1369 31.991 33.3616 31.4787 32.6985 30.7664C32.0434 30.0685 31.8768 30.0821 31.3055 30.7618C30.6736 31.5059 29.8661 32.0055 28.9383 32.4019C27.9018 32.85 27.2441 31.7883 28.2788 31.3457C29.4998 30.8225 30.3215 29.9038 31.268 28.5207C31.7466 27.8238 32.3972 27.9469 32.7261 28.5207ZM45.1946 25.2957C45.7516 25.2957 46.1973 25.8958 46.1973 26.6353C46.1973 27.3703 45.7516 27.9695 45.1946 27.974C44.6376 27.974 44.1884 27.3703 44.1884 26.6353C44.1875 25.8958 44.6367 25.2957 45.1946 25.2957ZM18.8049 25.2957C19.3575 25.2957 19.8075 25.8958 19.8075 26.6353C19.8075 27.3703 19.3575 27.9695 18.8049 27.974C18.2479 27.974 17.7987 27.3703 17.7987 26.6353C17.7987 25.8958 18.2479 25.2957 18.8049 25.2957ZM29.6068 8.07559C29.7182 8.08555 29.8527 8.15072 29.9971 8.29282C30.9294 9.17895 31.4677 9.28757 31.998 9.28757C32.5265 9.28757 33.0701 9.17804 33.9979 8.29282C34.579 7.7416 34.9738 8.34804 34.6717 8.88116C34.1744 9.76186 33.1673 10.4651 31.998 10.4651C30.8278 10.4651 29.8251 9.76276 29.3242 8.88116C29.0961 8.48562 29.2636 8.03848 29.6068 8.07559ZM27.5221 0C26.5658 0 26.278 0.508684 26.1015 1.28619L25.7486 2.82763C25.2281 5.09047 23.5989 6.25537 21.2139 7.24921L11.0983 11.4653C9.27927 12.2229 8.00657 13.6051 6.68842 15.8109L0.25186 29.6675C-0.119789 30.4641 -0.0868134 30.5292 0.395349 31.1945L3.48797 35.4749C4.06727 36.2759 4.43001 36.3755 5.60913 35.7346L12.0751 32.2082C14.1178 31.0958 13.6669 29.8784 12.5528 28.2619C11.9735 27.4128 11.5002 26.4661 10.97 25.5383C10.5992 24.883 11.3933 24.0946 11.8844 24.9627C15.0875 30.6007 19.4457 31.314 22.3841 31.314C23.6096 31.314 23.4144 32.573 22.4064 32.6101C20.1658 32.6997 17.9279 32.4119 16.5955 31.6525C15.133 30.8234 15.0305 31.323 15.2301 32.449L17.0919 42.773C17.5652 45.2766 16.7666 49.8212 16.1044 53.9559C15.7221 56.3083 16.5589 58 18.3735 58H45.626C47.437 58 48.2774 56.3083 47.8969 53.9559C47.2275 49.8212 46.4299 45.2766 46.9085 42.773L48.7694 32.449C48.969 31.323 48.8665 30.8234 47.4049 31.6525C46.0716 32.4119 43.8301 32.6988 41.5877 32.6101C40.5797 32.573 40.3899 31.314 41.6154 31.314C44.5538 31.314 48.9084 30.6016 52.1151 24.9627C52.6071 24.0946 53.4012 24.883 53.0304 25.5383C52.5019 26.4661 52.0278 27.4138 51.4431 28.2619C50.3326 29.8784 49.879 31.0958 51.9262 32.2082L58.393 35.7346C59.5668 36.3755 59.9295 36.2768 60.5097 35.4749L63.605 31.1945C64.0845 30.5292 64.1211 30.4641 63.7494 29.6675L57.312 15.8118C55.9929 13.6051 54.7211 12.2238 52.9021 11.4662L42.7865 7.25011C40.4006 6.25628 38.7714 5.09137 38.2509 2.82854L37.8989 1.2871C37.7171 0.508685 37.4292 0.000904636 36.472 0.000904636H27.5221V0Z" fill="#60686A"/>
</svg>
