<svg width="51" height="75" viewBox="0 0 51 75" fill="none" xmlns="http://www.w3.org/2000/svg">
<path d="M49.3332 23.9471C49.3332 10.7429 38.5666 0 25.3336 0C12.1004 0 1.33399 10.7429 1.33399 23.9471C1.33308 27.3288 1.8794 30.6886 2.95192 33.8965L3.29411 34.9207L4.37992 24.0862C4.66792 21.1284 6.05128 18.3841 8.25953 16.39C10.4677 14.3959 13.342 13.2955 16.3202 13.304H34.3469C37.3252 13.2955 40.1994 14.3959 42.4077 16.39C44.6159 18.3841 45.9993 21.1284 46.2873 24.0862L47.3731 34.9207L47.7151 33.8965C48.7878 30.6886 49.3341 27.3288 49.3332 23.9471Z" fill="#60686A"/>
<path d="M21.8669 64.9232L21.0518 64.3134L25.3334 72.8575L29.615 64.3134L28.8 64.9232C28.5692 65.096 28.2885 65.1893 28 65.1893H22.6667C22.3783 65.1893 22.0976 65.096 21.8669 64.9232Z" fill="#60686A"/>
<path d="M28.1167 38.5815H22.5522L21.4604 50.555H29.2077L28.1167 38.5815Z" fill="#60686A"/>
<path d="M21.8857 35.9206H28.7819L32.7812 31.9295H17.8857L21.8857 35.9206Z" fill="#60686A"/>
<path d="M15.4504 33.262L13.9687 31.7836L7.66406 29.9862L9.87877 35.1427L10.1255 34.9511C11.5309 33.8605 13.3806 33.2598 15.3337 33.2598C15.3727 33.2598 15.4114 33.262 15.4504 33.262Z" fill="#60686A"/>
<path d="M10.1245 39.551L10.0018 39.4557L7.08447 48.1903L18.8042 50.3165L19.7354 40.0948C18.3956 40.8589 16.8766 41.2548 15.3334 41.2422C13.3802 41.2422 11.5307 40.6416 10.1245 39.551Z" fill="#60686A"/>
<path d="M24.7367 59.7272L22.6664 58.6943L19.8589 60.0951L23.1109 62.5286H27.5551L30.807 60.0951L27.9997 58.6943L25.9293 59.7272C25.7442 59.8195 25.54 59.8677 25.333 59.8677C25.126 59.8677 24.9219 59.8195 24.7367 59.7272Z" fill="#60686A"/>
<path d="M25.3336 57.05L27.0065 56.2153L28.5096 53.2157H22.1577L23.6608 56.2153L25.3336 57.05Z" fill="#60686A"/>
<path d="M30.9316 40.0948L31.8629 50.3161L43.5826 48.1901L40.6647 39.4557L40.542 39.551C39.1364 40.6416 37.2869 41.2422 35.3337 41.2422C33.7905 41.2548 32.2715 40.8589 30.9316 40.0948Z" fill="#60686A"/>
<path d="M40.5417 34.9511L40.7883 35.1427L43.0031 29.9862L36.6983 31.7836L35.2168 33.262C35.2558 33.2616 35.2945 33.2598 35.3334 33.2598C37.2866 33.2598 39.1362 33.8605 40.5417 34.9511Z" fill="#60686A"/>
<path d="M35.3335 35.9206C33.99 35.9206 32.6883 36.3329 31.7624 37.0515L31.5054 37.251L31.7624 37.4505C32.6883 38.1692 33.99 38.5815 35.3335 38.5815C36.677 38.5815 37.9787 38.1692 38.9046 37.4505L39.1616 37.251L38.9046 37.0515C37.9787 36.3329 36.677 35.9206 35.3335 35.9206Z" fill="#F9ED37"/>
<path d="M18.9051 37.4505L19.1621 37.251L18.9051 37.0515C17.979 36.3329 16.6775 35.9206 15.334 35.9206C13.9905 35.9206 12.6888 36.3329 11.7629 37.0515L11.5059 37.251L11.7629 37.4505C12.6888 38.1692 13.9905 38.5815 15.334 38.5815C16.6775 38.5815 17.979 38.1692 18.9051 37.4505Z" fill="#F9ED37"/>
<path d="M14.8544 29.2686H35.8137L43.8956 26.9644L43.6338 24.3509C43.4098 22.0504 42.3339 19.9161 40.6165 18.3651C38.8992 16.8142 36.6637 15.9583 34.3475 15.9647H16.3207C14.0044 15.9582 11.7687 16.814 10.0512 18.3649C8.33378 19.9159 7.25778 22.0504 7.03391 24.3509L6.77197 26.9644L14.8544 29.2686Z" fill="#60686A"/>
<path d="M6.14576 33.2062L5.33789 41.2669L5.53505 44.4149L7.9086 37.3102L6.14576 33.2062Z" fill="#60686A"/>
<path d="M20.8781 56.6119L19.1059 53.0754L9.77344 51.3823L17.5448 58.2749L20.8781 56.6119Z" fill="#60686A"/>
<path d="M29.7891 56.6119L33.1224 58.2749L40.8943 51.3823L31.5612 53.0754L29.7891 56.6119Z" fill="#60686A"/>
<path d="M44.5211 33.2062L42.7583 37.3102L45.1317 44.4149L45.3289 41.2669L44.5211 33.2062Z" fill="#60686A"/>
<path d="M0 37.251V43.903C0.00245161 44.926 0.299225 45.9268 0.854967 46.7864C1.41071 47.646 2.20219 48.3284 3.13523 48.7523L2.6809 41.4983L0.847612 36.0133C0.598193 36.1109 0.383871 36.2811 0.232645 36.5018C0.0815481 36.7226 0.000387097 36.9837 0 37.251Z" fill="#60686A"/>
<path d="M49.8121 46.7861C50.3677 45.9266 50.6644 44.9258 50.6667 43.9029V37.2509C50.6663 36.9836 50.5854 36.7227 50.4343 36.502C50.2833 36.2812 50.0691 36.111 49.8198 36.0132L47.9865 41.4983L47.5322 48.7523C48.4651 48.3282 49.2565 47.6458 49.8121 46.7861Z" fill="#60686A"/>
<path d="M7.58363 61.3903C8.32182 62.8431 9.34827 64.131 10.6005 65.1759L19.1142 72.2554C20.2542 73.2013 21.596 73.8747 23.0368 74.224L16.2559 60.692L5.98389 51.5814L6.30608 56.7247C6.41072 58.3501 6.84543 59.9375 7.58363 61.3903Z" fill="#60686A"/>
<path d="M31.553 72.2554L40.0666 65.1759C41.3189 64.131 42.3452 62.8431 43.0834 61.3903C43.8216 59.9375 44.2562 58.3501 44.361 56.7247L44.6833 51.5814L34.4113 60.692L27.6304 74.224C29.0711 73.8747 30.4128 73.2013 31.553 72.2554Z" fill="#60686A"/>
</svg>
